<svg id="Layer_1" data-name="Layer 1" xmlns="http://www.w3.org/2000/svg" xmlns:xlink="http://www.w3.org/1999/xlink" viewBox="0 0 350 318.29"><defs><style>.cls-1{fill:url(#linear-gradient);}.cls-2{fill:url(#linear-gradient-2);}.cls-3{fill:url(#linear-gradient-3);}.cls-4{fill:url(#linear-gradient-4);}.cls-5{fill:url(#linear-gradient-5);}.cls-6{fill:url(#linear-gradient-6);}.cls-7{fill:url(#linear-gradient-7);}.cls-8{fill:url(#linear-gradient-8);}.cls-9{fill:url(#linear-gradient-9);}.cls-10{fill:url(#linear-gradient-10);}.cls-11{fill:url(#linear-gradient-11);}.cls-12{fill:url(#linear-gradient-12);}.cls-13{fill:url(#linear-gradient-13);}.cls-14{fill:#eda628;}</style><linearGradient id="linear-gradient" x1="175" y1="202.04" x2="175" y2="301.26" gradientUnits="userSpaceOnUse"><stop offset="0" stop-color="#0068df"/><stop offset="1" stop-color="#00108a"/></linearGradient><linearGradient id="linear-gradient-2" x1="185.66" y1="19.26" x2="185.66" y2="40.86" xlink:href="#linear-gradient"/><linearGradient id="linear-gradient-3" x1="261.64" y1="105.23" x2="68.48" y2="341.23" gradientUnits="userSpaceOnUse"><stop offset="0" stop-color="#ffcd4d"/><stop offset="1" stop-color="#a24c00"/></linearGradient><linearGradient id="linear-gradient-4" x1="242.72" y1="257.13" x2="12.74" y2="345.07" xlink:href="#linear-gradient-3"/><linearGradient id="linear-gradient-5" x1="124.34" y1="7.69" x2="246.86" y2="106.91" xlink:href="#linear-gradient-3"/><linearGradient id="linear-gradient-6" x1="282.53" y1="281.56" x2="154.73" y2="330.42" xlink:href="#linear-gradient-3"/><linearGradient id="linear-gradient-7" x1="132.29" y1="286.03" x2="30.1" y2="325.11" xlink:href="#linear-gradient-3"/><linearGradient id="linear-gradient-8" x1="305.75" y1="228.54" x2="195.9" y2="289.7" xlink:href="#linear-gradient"/><linearGradient id="linear-gradient-9" x1="241.46" y1="228.54" x2="131.61" y2="289.7" gradientTransform="matrix(-1, 0, 0, 1, 285.71, 0)" xlink:href="#linear-gradient"/><linearGradient id="linear-gradient-10" x1="277.65" y1="191.42" x2="244.36" y2="232.1" xlink:href="#linear-gradient-3"/><linearGradient id="linear-gradient-11" x1="267.3" y1="191.42" x2="234.01" y2="232.1" gradientTransform="matrix(-1, 0, 0, 1, 339.65, 0)" xlink:href="#linear-gradient-3"/><linearGradient id="linear-gradient-12" x1="189.72" y1="86.25" x2="157.52" y2="-24.41" xlink:href="#linear-gradient-3"/><linearGradient id="linear-gradient-13" x1="175" y1="212.06" x2="175" y2="54.09" xlink:href="#linear-gradient-3"/></defs><path class="cls-1" d="M0,211.91c32.5,68.37,144.69,52.5,175,94.31C163.34,245,41.8,251.77,0,211.91Zm175,94.31c30.31-41.81,142.5-25.94,175-94.31C308.2,251.77,186.66,245,175,306.22Z"/><path class="cls-2" d="M182.62,24H172.8l7.95,5.77-3,9.35,7.95-5.78,8,5.78-3-9.35,8-5.77H188.7l-3-9.35Z"/><path class="cls-3" d="M175,88.81c-32.07,41.71-105.25,48.87-105.25,105C78,159,151.9,146.32,175,118.59c23.1,27.73,97,40.45,105.25,75.18C280.25,137.68,207.07,130.52,175,88.81ZM301.54,222s-21.29-.91-32.37-4.32c3.68-18.42-4.13-35.55-27.24-42.41,16.28,13.68,15.79,44.37,4.87,62.62C271.74,229,292.11,227.7,301.54,222ZM108.07,175.28c-23.11,6.86-30.92,24-27.24,42.41C69.75,221.1,48.46,222,48.46,222c9.43,5.69,29.8,7,54.74,15.89C92.28,219.65,91.79,189,108.07,175.28Z"/><path class="cls-4" d="M31.41,276.26c23,47,123.07,30.1,143.59,41.79C156.25,280.12,65.37,299.77,31.41,276.26ZM175,318.05c20.52-11.69,120.58,5.19,143.59-41.79C284.63,299.77,193.75,280.12,175,318.05Z"/><path class="cls-5" d="M211.85,49.72A39,39,0,1,1,162.22,0a35.13,35.13,0,0,0,49.63,49.72Z"/><path class="cls-6" d="M318.59,276.26C283.3,311.88,195.76,294.56,175,318.05,193.75,280.12,284.63,299.77,318.59,276.26Z"/><path class="cls-7" d="M31.41,276.26C66.7,311.88,154.24,294.56,175,318.05,156.25,280.12,65.37,299.77,31.41,276.26Z"/><path class="cls-8" d="M350,211.91c-31.24,47.33-151.47,42.8-175,94.31C186.66,245,308.2,251.77,350,211.91Z"/><path class="cls-9" d="M0,211.91c31.24,47.33,151.47,42.8,175,94.31C163.34,245,41.8,251.77,0,211.91Z"/><path class="cls-10" d="M258.73,226.14c7.65-15.49,3.63-43.86-16.8-50.86,23.11,6.86,30.92,24,27.24,42.41,11.08,3.41,32.37,4.32,32.37,4.32C288.61,225.94,271.74,221.92,258.73,226.14Z"/><path class="cls-11" d="M91.27,226.14c-7.65-15.49-3.63-43.86,16.8-50.86-23.11,6.86-30.92,24-27.24,42.41C69.75,221.1,48.46,222,48.46,222,61.39,225.94,78.26,221.92,91.27,226.14Z"/><path class="cls-12" d="M211.85,49.72C194,74,163.62,71.22,150.29,54.2,138.63,39.29,139,15.15,162.22,0a35.13,35.13,0,0,0,49.63,49.72Z"/><path class="cls-13" d="M175,105.44c-29.27,30.84-101.43,44.15-105.25,88.33C78,159,151.9,146.32,175,118.59c23.1,27.73,97,40.45,105.25,75.18C276.43,149.59,204.27,136.28,175,105.44Z"/><path class="cls-14" d="M127.6,218.25c1-6.78,1.83-13.1,2.72-19.42,1.3-9.29,2.64-18.58,3.9-27.88.19-1.39.37-2.34,2.1-2.66,15-2.83,31.23,4,39.49,16.81C166,177,155.07,172.55,142,174.25l-4.63,35.85c16.87.4,31.47,4.86,39.41,21.42A41.07,41.07,0,0,0,154.52,218C145.79,215.84,137,216.4,127.6,218.25Z"/><path class="cls-14" d="M211.18,199.81c-.58-4.37-1.15-8.68-1.72-13-.75-5.62-1.54-11.23-2.21-16.86-.21-1.76-.78-2.25-2.67-2-10.52,1.34-18,7.46-24.29,15.36l-.75,1c1.62-12.68,17.15-24,33.44-23.26,2,15,4,30.08,6,45.48-16.54,1-31,5.67-39.13,21.56C183.51,211.25,195.89,204,211.18,199.81Z"/><path class="cls-14" d="M180.32,231.73a31.4,31.4,0,0,1,17-17.41c7.81-3.53,16.05-4.34,24.76-4.2-1.86-14-3.69-27.84-5.57-42.1l6.05.67c2.32,16.47,4.61,32.72,7,49.42-9.14-1.55-18-2.33-26.79-.15S186.19,224.45,180.32,231.73Z"/><path class="cls-14" d="M119.11,232c1.33-8,2.57-15.58,3.84-23.15,1.45-8.62,3-17.21,4.35-25.84.36-2.32,1.31-3.74,4-4.33-2.16,14.36-4.31,28.59-6.53,43.3,9.44-2.08,18.64-2.76,27.86-1.22,9.41,1.56,17.58,5.44,23.36,13.45C157.58,222.87,138.64,224.1,119.11,232Z"/><path class="cls-14" d="M180.91,234.08A29.53,29.53,0,0,1,195.51,223c11.19-4,22.6-3.59,34.08-1.55.78.14,1.57.23,2.67.39-2-14.64-3.95-29-5.9-43.26l.92-.37a13.82,13.82,0,0,1,1.45,3.29c1,6.7,1.94,13.42,2.88,20.13q1.94,13.78,3.86,27.58a11.07,11.07,0,0,1,0,1.42C217,224.9,198.8,222.13,180.91,234.08Z"/></svg>