<svg id="Layer_1" data-name="Layer 1" xmlns="http://www.w3.org/2000/svg" viewBox="0 0 350 272.68"><defs><style>.cls-1{fill:#cbe8f9;}.cls-2{fill:#f1f8fd;}.cls-3{fill:none;stroke:#f1f8fd;stroke-miterlimit:10;stroke-width:1.19px;}.cls-4{font-size:38.04px;}.cls-4,.cls-5{fill:#434343;font-family:LiChayanaTeestaANSIV2, Li Chayana Teesta ANSI V2;}.cls-5{font-size:33.59px;}</style></defs><path class="cls-1" d="M7.88,177.42v27.21S95.2,175.8,158.15,220.47C158.15,220.47,110.63,160.77,7.88,177.42Z"/><path class="cls-2" d="M34.68,131.12l-7.31,26s82.85-6.9,143.37,59.71C170.74,216.82,126.87,138,34.68,131.12Z"/><path class="cls-1" d="M342.12,176.11v27.21s-87.32-28.83-150.27,15.84C191.85,219.16,239.37,159.46,342.12,176.11Z"/><path class="cls-2" d="M315.32,129.81l7.31,26s-82.85-6.91-143.37,59.7C179.26,215.51,223.13,136.72,315.32,129.81Z"/><path class="cls-2" d="M83,136s31.13-68.84,90.22-65.3a23.79,23.79,0,0,0,2.67,0c8.24-.41,60.65-.28,91.09,65.26,0,0-17.2-77.07-91.56-76.76l-.78,0C169.28,59,104.42,57.77,83,136Z"/><path class="cls-2" d="M76.51,261.08s87.73-72.29,196.57,0c0,0-30.46-46.7-98.28-48.33C174.8,212.75,120.78,209.1,76.51,261.08Z"/><line class="cls-3" x1="53.23" y1="123.41" x2="82.78" y2="128.79"/><line class="cls-3" x1="45.72" y1="92.95" x2="87.45" y2="110.21"/><line class="cls-3" x1="73.03" y1="77.82" x2="96.69" y2="94.06"/><line class="cls-3" x1="76.58" y1="46.85" x2="108.87" y2="78.93"/><line class="cls-3" x1="106.79" y1="43.25" x2="122.93" y2="67"/><line class="cls-3" x1="122.17" y1="15.38" x2="139.99" y2="57.71"/><line class="cls-3" x1="151.87" y1="25.43" x2="157.5" y2="53.76"/><line class="cls-3" x1="176.82" y1="5.17" x2="176.82" y2="51.47"/><line class="cls-3" x1="201.06" y1="25.12" x2="194.66" y2="53.45"/><line class="cls-3" x1="230.76" y1="15.53" x2="213.85" y2="57.87"/><line class="cls-3" x1="245.23" y1="43.09" x2="230.61" y2="67.77"/><line class="cls-3" x1="276.3" y1="46.75" x2="245.53" y2="78.43"/><line class="cls-3" x1="279.34" y1="77.82" x2="257.11" y2="92.13"/><line class="cls-3" x1="307.37" y1="93.66" x2="266.55" y2="110.71"/><line class="cls-3" x1="297.92" y1="122.59" x2="270.81" y2="127.47"/><text class="cls-4" transform="translate(118.6 124.62)">KziA‡bi</text><text class="cls-5" transform="translate(139.76 165.05)">†R¨vwZ</text></svg>